<?xml version="1.0" encoding="utf-8"?>
<!-- Generator: Adobe Illustrator 19.0.0, SVG Export Plug-In . SVG Version: 6.00 Build 0)  -->
<svg version="1.1" id="Layer_1" xmlns="http://www.w3.org/2000/svg" xmlns:xlink="http://www.w3.org/1999/xlink" x="0px" y="0px"
	 viewBox="0 0 1400 980" style="enable-background:new 0 0 1400 980;" xml:space="preserve">
<style type="text/css">
	.st0{fill:#353236;}
	.st1{fill:#D1D3D4;}
	.st2{fill:#F1F2F2;}
	.st3{fill:#40858C;}
	.st4{fill:#77CCC6;}
	.st5{fill:#CE7F29;}
	.st6{fill:#F2A74A;}
	.st7{fill:none;}
	.st8{fill:#F8F6EE;}
	.st9{fill:#808080;}
	.st10{fill:#F2B137;}
	.st11{fill:#333333;}
	.st12{fill:#2A272B;}
	.st13{fill:#DBE6F1;}
	.st14{fill:#979C9C;}
	.st15{fill:#CA2C2D;}
	.st16{fill:#59595A;}
	.st17{fill:#4D4D4D;}
	.st18{fill:#E54E33;}
	.st19{fill:#AA6427;}
	.st20{fill:#BE752A;}
	.st21{fill:#F2C436;}
	.st22{fill:#EFE637;}
	.st23{fill:#9B5926;}
</style>
<g id="XMLID_2960_">
	<rect id="XMLID_939_" class="st0" width="1400" height="980"/>
	<g id="XMLID_1185_">
		<g id="XMLID_1187_">
			<circle id="XMLID_1188_" class="st1" cx="342.1" cy="826.8" r="2.3"/>
		</g>
		<path id="XMLID_1186_" class="st2" d="M342.1,824.5c-1.3,0-2.3,1-2.3,2.3c0,0.5,0.2,1,0.4,1.4c0.4,0.3,0.9,0.4,1.4,0.4
			c1.3,0,2.3-1,2.3-2.3c0-0.5-0.2-1-0.4-1.4C343.1,824.6,342.7,824.5,342.1,824.5z"/>
	</g>
	<g id="XMLID_1250_">
		<g id="XMLID_1252_">
			<circle id="XMLID_1253_" class="st1" cx="595.3" cy="833.8" r="2.3"/>
		</g>
		<path id="XMLID_1251_" class="st2" d="M595.3,831.5c-1.3,0-2.3,1-2.3,2.3c0,0.5,0.2,1,0.4,1.4c0.4,0.3,0.9,0.4,1.4,0.4
			c1.3,0,2.3-1,2.3-2.3c0-0.5-0.2-1-0.4-1.4C596.3,831.7,595.8,831.5,595.3,831.5z"/>
	</g>
	<g id="XMLID_1254_">
		<g id="XMLID_1256_">
			<circle id="XMLID_1257_" class="st1" cx="630.2" cy="576.1" r="2.3"/>
		</g>
		<path id="XMLID_1255_" class="st2" d="M630.2,573.7c-1.3,0-2.3,1-2.3,2.3c0,0.5,0.2,1,0.4,1.4c0.4,0.3,0.9,0.4,1.4,0.4
			c1.3,0,2.3-1,2.3-2.3c0-0.5-0.2-1-0.4-1.4C631.1,573.9,630.7,573.7,630.2,573.7z"/>
	</g>
	<g id="XMLID_1189_">
		<g id="XMLID_1191_">
			<circle id="XMLID_1192_" class="st1" cx="175" cy="562.5" r="2.3"/>
		</g>
		<path id="XMLID_1190_" class="st2" d="M175,560.2c-1.3,0-2.3,1-2.3,2.3c0,0.5,0.2,1,0.4,1.4c0.4,0.3,0.9,0.4,1.4,0.4
			c1.3,0,2.3-1,2.3-2.3c0-0.5-0.2-1-0.4-1.4C176,560.4,175.5,560.2,175,560.2z"/>
	</g>
	<g id="XMLID_1206_">
		<g id="XMLID_1208_">
			<circle id="XMLID_1209_" class="st1" cx="419.2" cy="516.9" r="2.3"/>
		</g>
		<path id="XMLID_1207_" class="st2" d="M419.2,514.5c-1.3,0-2.3,1-2.3,2.3c0,0.5,0.2,1,0.4,1.4c0.4,0.3,0.9,0.4,1.4,0.4
			c1.3,0,2.3-1,2.3-2.3c0-0.5-0.2-1-0.4-1.4C420.2,514.7,419.7,514.5,419.2,514.5z"/>
	</g>
	<g id="XMLID_1210_">
		<g id="XMLID_1212_">
			<circle id="XMLID_1213_" class="st1" cx="157" cy="165.9" r="2.3"/>
		</g>
		<path id="XMLID_1211_" class="st2" d="M157,163.6c-1.3,0-2.3,1-2.3,2.3c0,0.5,0.2,1,0.4,1.4c0.4,0.3,0.9,0.4,1.4,0.4
			c1.3,0,2.3-1,2.3-2.3c0-0.5-0.2-1-0.4-1.4C158,163.7,157.5,163.6,157,163.6z"/>
	</g>
	<g id="XMLID_1214_">
		<g id="XMLID_1216_">
			<circle id="XMLID_1217_" class="st1" cx="1013.6" cy="298.3" r="2.3"/>
		</g>
		<path id="XMLID_1215_" class="st2" d="M1013.6,295.9c-1.3,0-2.3,1-2.3,2.3c0,0.5,0.2,1,0.4,1.4c0.4,0.3,0.9,0.4,1.4,0.4
			c1.3,0,2.3-1,2.3-2.3c0-0.5-0.2-1-0.4-1.4C1014.6,296.1,1014.1,295.9,1013.6,295.9z"/>
	</g>
	<g id="XMLID_1271_">
		<g id="XMLID_1273_">
			<circle id="XMLID_1274_" class="st1" cx="1090.8" cy="168.3" r="2.3"/>
		</g>
		<path id="XMLID_1272_" class="st2" d="M1090.8,165.9c-1.3,0-2.3,1-2.3,2.3c0,0.5,0.2,1,0.4,1.4c0.4,0.3,0.9,0.4,1.4,0.4
			c1.3,0,2.3-1,2.3-2.3c0-0.5-0.2-1-0.4-1.4C1091.7,166.1,1091.3,165.9,1090.8,165.9z"/>
	</g>
	<g id="XMLID_1288_">
		<g id="XMLID_1290_">
			<circle id="XMLID_1291_" class="st1" cx="1314.9" cy="391.7" r="2.3"/>
		</g>
		<path id="XMLID_1289_" class="st2" d="M1314.9,389.3c-1.3,0-2.3,1-2.3,2.3c0,0.5,0.2,1,0.4,1.4c0.4,0.3,0.9,0.4,1.4,0.4
			c1.3,0,2.3-1,2.3-2.3c0-0.5-0.2-1-0.4-1.4C1315.9,389.5,1315.4,389.3,1314.9,389.3z"/>
	</g>
	<g id="XMLID_1238_">
		<g id="XMLID_1240_">
			<circle id="XMLID_1241_" class="st1" cx="242.3" cy="417.3" r="2.3"/>
		</g>
		<path id="XMLID_1239_" class="st2" d="M242.3,415c-1.3,0-2.3,1-2.3,2.3c0,0.5,0.2,1,0.4,1.4c0.4,0.3,0.9,0.4,1.4,0.4
			c1.3,0,2.3-1,2.3-2.3c0-0.5-0.2-1-0.4-1.4C243.3,415.1,242.8,415,242.3,415z"/>
	</g>
	<g id="XMLID_1242_">
		<g id="XMLID_1244_">
			<circle id="XMLID_1245_" class="st1" cx="421.5" cy="111.5" r="2.3"/>
		</g>
		<path id="XMLID_1243_" class="st2" d="M421.5,109.2c-1.3,0-2.3,1-2.3,2.3c0,0.5,0.2,1,0.4,1.4c0.4,0.3,0.9,0.4,1.4,0.4
			c1.3,0,2.3-1,2.3-2.3c0-0.5-0.2-1-0.4-1.4C422.5,109.4,422.1,109.2,421.5,109.2z"/>
	</g>
	<g id="XMLID_1246_">
		<g id="XMLID_1248_">
			<circle id="XMLID_1249_" class="st1" cx="118.4" cy="731" r="2.3"/>
		</g>
		<path id="XMLID_1247_" class="st2" d="M118.4,728.7c-1.3,0-2.3,1-2.3,2.3c0,0.5,0.2,1,0.4,1.4c0.4,0.3,0.9,0.4,1.4,0.4
			c1.3,0,2.3-1,2.3-2.3c0-0.5-0.2-1-0.4-1.4C119.3,728.8,118.9,728.7,118.4,728.7z"/>
	</g>
	<g id="XMLID_1218_">
		<g id="XMLID_1220_">
			<circle id="XMLID_1221_" class="st1" cx="866.4" cy="128.5" r="2.3"/>
		</g>
		<path id="XMLID_1219_" class="st2" d="M866.4,126.1c-1.3,0-2.3,1-2.3,2.3c0,0.5,0.2,1,0.4,1.4c0.4,0.3,0.9,0.4,1.4,0.4
			c1.3,0,2.3-1,2.3-2.3c0-0.5-0.2-1-0.4-1.4C867.4,126.3,866.9,126.1,866.4,126.1z"/>
	</g>
	<g id="XMLID_1222_">
		<g id="XMLID_1224_">
			<circle id="XMLID_1225_" class="st1" cx="1259.4" cy="151" r="2.3"/>
		</g>
		<path id="XMLID_1223_" class="st2" d="M1259.4,148.6c-1.3,0-2.3,1-2.3,2.3c0,0.5,0.2,1,0.4,1.4c0.4,0.3,0.9,0.4,1.4,0.4
			c1.3,0,2.3-1,2.3-2.3c0-0.5-0.2-1-0.4-1.4C1260.4,148.8,1259.9,148.6,1259.4,148.6z"/>
	</g>
	<g id="XMLID_1226_">
		<g id="XMLID_1228_">
			<circle id="XMLID_1229_" class="st1" cx="1345.7" cy="892.1" r="2.3"/>
		</g>
		<path id="XMLID_1227_" class="st2" d="M1345.7,889.8c-1.3,0-2.3,1-2.3,2.3c0,0.5,0.2,1,0.4,1.4c0.4,0.3,0.9,0.4,1.4,0.4
			c1.3,0,2.3-1,2.3-2.3c0-0.5-0.2-1-0.4-1.4C1346.6,890,1346.2,889.8,1345.7,889.8z"/>
	</g>
	<g id="XMLID_1230_">
		<g id="XMLID_1232_">
			<circle id="XMLID_1233_" class="st1" cx="1187.3" cy="855.1" r="2.3"/>
		</g>
		<path id="XMLID_1231_" class="st2" d="M1187.3,852.8c-1.3,0-2.3,1-2.3,2.3c0,0.5,0.2,1,0.4,1.4c0.4,0.3,0.9,0.4,1.4,0.4
			c1.3,0,2.3-1,2.3-2.3c0-0.5-0.2-1-0.4-1.4C1188.3,853,1187.8,852.8,1187.3,852.8z"/>
	</g>
	<g id="XMLID_1234_">
		<g id="XMLID_1236_">
			<circle id="XMLID_1237_" class="st1" cx="1193.1" cy="431" r="2.3"/>
		</g>
		<path id="XMLID_1235_" class="st2" d="M1193.1,428.7c-1.3,0-2.3,1-2.3,2.3c0,0.5,0.2,1,0.4,1.4c0.4,0.3,0.9,0.4,1.4,0.4
			c1.3,0,2.3-1,2.3-2.3c0-0.5-0.2-1-0.4-1.4C1194,428.9,1193.6,428.7,1193.1,428.7z"/>
	</g>
	<g id="XMLID_1438_">
		<g id="XMLID_1440_">
			<circle id="XMLID_1441_" class="st3" cx="1133.1" cy="269.4" r="15.2"/>
		</g>
		<path id="XMLID_1439_" class="st4" d="M1133.1,254.2c-8.4,0-15.2,6.8-15.2,15.2c0,3.3,1,6.3,2.8,8.8c2.5,1.8,5.5,2.8,8.8,2.8
			c8.4,0,15.2-6.8,15.2-15.2c0-3.3-1-6.3-2.8-8.8C1139.4,255.3,1136.4,254.2,1133.1,254.2z"/>
	</g>
	<g id="XMLID_1468_">
		<g id="XMLID_1470_">
			<circle id="XMLID_1471_" class="st5" cx="320.8" cy="107.7" r="15.2"/>
		</g>
		<path id="XMLID_1469_" class="st6" d="M320.8,92.5c-8.4,0-15.2,6.8-15.2,15.2c0,3.3,1,6.3,2.8,8.8c2.5,1.8,5.5,2.8,8.8,2.8
			c8.4,0,15.2-6.8,15.2-15.2c0-3.3-1-6.3-2.8-8.8C327.1,93.6,324,92.5,320.8,92.5z"/>
	</g>
	<g id="XMLID_994_">
		<path id="XMLID_995_" class="st7" d="M866.4,713.4c0.8,0,1.6,0.1,2.3,0.1C868,713.4,867.2,713.4,866.4,713.4z"/>
		<path id="XMLID_996_" class="st7" d="M859.3,712.8c0.5,0,0.9,0.1,1.4,0.1C860.3,712.9,859.8,712.9,859.3,712.8z"/>
		<path id="XMLID_997_" class="st7" d="M862.9,713.1c0.6,0,1.2,0.1,1.8,0.1C864.1,713.2,863.5,713.2,862.9,713.1z"/>
		<path id="XMLID_998_" class="st7" d="M855.8,712.4c0.4,0,0.8,0.1,1.1,0.1C856.6,712.5,856.2,712.5,855.8,712.4z"/>
		<path id="XMLID_999_" class="st7" d="M845.5,710.8c0.1,0,0.2,0,0.4,0.1C845.8,710.8,845.6,710.8,845.5,710.8z"/>
		<path id="XMLID_1000_" class="st7" d="M852.4,712c0.3,0,0.6,0.1,0.9,0.1C852.9,712,852.6,712,852.4,712z"/>
		<path id="XMLID_1001_" class="st7" d="M848.9,711.4c0.2,0,0.4,0.1,0.6,0.1C849.3,711.5,849.1,711.4,848.9,711.4z"/>
		<path id="XMLID_1002_" class="st7" d="M946.1,710.1c0,0,0.1,0,0.1,0C946.2,710,946.1,710.1,946.1,710.1z"/>
		<path id="XMLID_1003_" class="st7" d="M935.1,712.1c0.3,0,0.6-0.1,0.9-0.1C935.7,712,935.4,712,935.1,712.1z"/>
		<path id="XMLID_1004_" class="st7" d="M919.6,713.5c0.8,0,1.5,0,2.3-0.1C921.2,713.4,920.4,713.4,919.6,713.5z"/>
		<path id="XMLID_1005_" class="st7" d="M938.8,711.5c0.2,0,0.4-0.1,0.6-0.1C939.2,711.4,939,711.5,938.8,711.5z"/>
		<path id="XMLID_1006_" class="st7" d="M842.1,710c0.1,0,0.1,0,0.2,0C842.3,710.1,842.2,710,842.1,710z"/>
		<path id="XMLID_1007_" class="st7" d="M942.5,710.8c0.1,0,0.2,0,0.3-0.1C942.7,710.8,942.6,710.8,942.5,710.8z"/>
		<path id="XMLID_1008_" class="st7" d="M931.4,712.6c0.4,0,0.8-0.1,1.1-0.1C932.2,712.5,931.8,712.5,931.4,712.6z"/>
		<path id="XMLID_1009_" class="st7" d="M923.7,713.3c0.6,0,1.2-0.1,1.8-0.1C924.9,713.2,924.3,713.2,923.7,713.3z"/>
		<path id="XMLID_1010_" class="st7" d="M927.6,713c0.5,0,0.9-0.1,1.4-0.1C928.6,712.9,928.1,712.9,927.6,713z"/>
		<path id="XMLID_1011_" class="st7" d="M762.5,674.8c0.4-0.1,0.8-0.3,1.1-0.4C763.3,674.5,762.9,674.6,762.5,674.8z"/>
		<path id="XMLID_1012_" class="st7" d="M1049.7,688.8c-0.9-0.2-1.7-0.4-2.6-0.6C1047.9,688.4,1048.8,688.6,1049.7,688.8z"/>
		<path id="XMLID_1013_" class="st7" d="M748.9,686.4c-1.2,0.3-2.3,0.6-3.4,0.9C746.6,687,747.8,686.7,748.9,686.4z"/>
		<path id="XMLID_1014_" class="st7" d="M744.7,687.4c-0.9,0.2-1.7,0.4-2.6,0.6C742.9,687.9,743.8,687.6,744.7,687.4z"/>
		<path id="XMLID_1015_" class="st7" d="M746.4,692.5C746.4,692.5,746.4,692.5,746.4,692.5C746.4,692.5,746.4,692.5,746.4,692.5z"/>
		<path id="XMLID_1016_" class="st7" d="M1041.9,692.5C1041.9,692.5,1041.9,692.5,1041.9,692.5
			C1041.9,692.5,1041.9,692.5,1041.9,692.5z"/>
		<path id="XMLID_1017_" class="st7" d="M1022.4,673.8c0.6,0.1,1.1,0.3,1.7,0.5C1023.6,674,1023,673.9,1022.4,673.8z"/>
		<path id="XMLID_1018_" class="st7" d="M1046.3,688c-0.9-0.2-1.7-0.4-2.6-0.6C1044.6,687.6,1045.4,687.9,1046.3,688z"/>
		<path id="XMLID_1019_" class="st7" d="M1056.4,690c-1-0.2-2-0.3-3-0.5C1054.4,689.7,1055.4,689.8,1056.4,690z"/>
		<path id="XMLID_1020_" class="st7" d="M734.9,689.5c-1,0.2-2,0.4-3,0.5C732.9,689.8,733.9,689.7,734.9,689.5z"/>
		<path id="XMLID_1021_" class="st7" d="M759.3,676.3c0.1-0.1,0.2-0.1,0.4-0.2C759.5,676.1,759.4,676.2,759.3,676.3z"/>
		<path id="XMLID_1022_" class="st7" d="M760.6,675.6c0.4-0.2,0.9-0.4,1.4-0.6C761.5,675.2,761,675.4,760.6,675.6z"/>
		<path id="XMLID_1023_" class="st7" d="M738.1,688.9c-0.9,0.2-1.8,0.4-2.8,0.5C736.2,689.2,737.1,689.1,738.1,688.9z"/>
		<path id="XMLID_1024_" class="st7" d="M764.2,674.2c0.6-0.2,1.1-0.3,1.7-0.5C765.3,673.9,764.8,674,764.2,674.2z"/>
		<path id="XMLID_1025_" class="st7" d="M1053.1,689.4c-0.9-0.2-1.8-0.3-2.8-0.5C1051.2,689.1,1052.1,689.2,1053.1,689.4z"/>
		<path id="XMLID_1026_" class="st7" d="M741.3,688.2c-0.9,0.2-1.7,0.4-2.6,0.6C739.5,688.6,740.4,688.4,741.3,688.2z"/>
		<path id="XMLID_1027_" class="st7" d="M732.1,526.8c0,0.1,0,0.3,0,0.4C732.1,527,732.1,526.9,732.1,526.8z"/>
		<path id="XMLID_1028_" class="st7" d="M1056.2,527.2c0-0.1,0-0.2,0-0.2C1056.2,527,1056.2,527.1,1056.2,527.2z"/>
		<path id="XMLID_1029_" class="st7" d="M1056.2,575.9c0-0.1,0-0.2,0-0.2C1056.2,575.8,1056.2,575.9,1056.2,575.9z"/>
		<path id="XMLID_1030_" class="st7" d="M1024.7,674.4c0.4,0.1,0.8,0.3,1.1,0.4C1025.4,674.6,1025.1,674.5,1024.7,674.4z"/>
		<polygon id="XMLID_1031_" class="st7" points="732.1,530.9 732.1,530.9 732.1,530.9 		"/>
		<path id="XMLID_1032_" class="st7" d="M732.1,575.7c0,0.1,0,0.3,0,0.4C732.1,576,732.1,575.8,732.1,575.7z"/>
		<path id="XMLID_1033_" class="st7" d="M914.7,713.6c1.2,0,2.4,0,3.6,0C917.1,713.5,915.9,713.6,914.7,713.6l-41.1,0
			c-1.2,0-2.4,0-3.6,0c1.2,0,2.4,0,3.6,0H914.7z"/>
		<path id="XMLID_1034_" class="st7" d="M1026.4,675c0.5,0.2,0.9,0.4,1.4,0.6C1027.3,675.4,1026.9,675.2,1026.4,675z"/>
		<path id="XMLID_1035_" class="st7" d="M1028.7,676.1c0.1,0.1,0.3,0.1,0.4,0.2C1029,676.2,1028.8,676.1,1028.7,676.1z"/>
		<path id="XMLID_1036_" class="st7" d="M1039.4,686.4c1.2,0.3,2.3,0.6,3.4,0.9C1041.7,687,1040.6,686.7,1039.4,686.4L1039.4,686.4z
			"/>
		<path id="XMLID_1039_" class="st8" d="M1105.6,689.5c-14.6,2.9-30.8,3.5-49.1,0.5c0,0-0.1,0-0.1,0c-1-0.2-2-0.3-3-0.5
			c-0.1,0-0.2,0-0.4-0.1c-0.9-0.2-1.8-0.3-2.8-0.5c-0.2,0-0.4-0.1-0.6-0.1c-0.9-0.2-1.7-0.4-2.6-0.6c-0.3-0.1-0.5-0.1-0.8-0.2
			c-0.9-0.2-1.7-0.4-2.6-0.6c-0.3-0.1-0.5-0.1-0.8-0.2c-1.1-0.3-2.3-0.6-3.4-0.9c1.1,1.9,1.9,4,2.5,6.1c0,0,0,0,0,0
			c0.2,0.7,0.4,1.5,0.5,2.2c1.9,10.6-2.5,20.9-11.5,26.8C998.8,742.8,960.1,754,919,754h-49.7c-41.1,0-79.8-11.2-111.9-32.4
			c-9-6-13.4-16.2-11.5-26.8c0.1-0.8,0.3-1.5,0.5-2.2c0,0,0,0,0,0c0.6-2.2,1.4-4.2,2.5-6.1l0,0c-1.2,0.3-2.3,0.6-3.4,0.9
			c-0.3,0.1-0.5,0.1-0.8,0.2c-0.9,0.2-1.7,0.4-2.6,0.6c-0.3,0.1-0.5,0.1-0.8,0.2c-0.9,0.2-1.7,0.4-2.6,0.6c-0.2,0-0.4,0.1-0.6,0.1
			c-0.9,0.2-1.8,0.4-2.8,0.5c-0.1,0-0.2,0-0.4,0.1c-1,0.2-2,0.4-3,0.5c0,0-0.1,0-0.1,0c-18.3,2.9-34.5,2.4-49.1-0.5c0,0,0,0.1,0,0.1
			c-7.2,28.3-18.7,57-34.2,85.3c17.9,7.4,36.4,13.3,55.6,17.6l0,0c9.2,2.1,18.5,3.9,27.9,5.3c5.3,58.5,15.4,115.2,31.7,169.5
			c0.2,0,0.3,0,0.5,0H855v-4.5c0-5,4-9,9-9h60.4c5,0,9,4,9,9v4.5h90.7c0.2,0,0.3,0,0.5,0c16.3-54.3,26.4-111,31.7-169.5
			c9.5-1.4,18.8-3.2,28-5.3l0,0c19.2-4.4,37.7-10.2,55.6-17.6c-15.4-28.3-27-56.9-34.2-85.3C1105.6,689.5,1105.6,689.5,1105.6,689.5
			z M973.7,915c0,10.8-8.8,19.6-19.6,19.6H834.3c-10.8,0-19.6-8.8-19.6-19.6V795.3c0-10.8,8.8-19.6,19.6-19.6h119.8
			c10.8,0,19.6,8.8,19.6,19.6V915z"/>
		<path id="XMLID_1040_" class="st8" d="M661.4,684.2c0.1-0.3,0.1-0.5,0.2-0.7c-23.9-9-44-23.8-63.9-37.6c-0.5,0.5-1.1,1-1.8,1.4
			l-67.1,43.2c30.1,32.5,63.4,57.4,99.6,75.3c0.1-0.2,0.2-0.4,0.3-0.6C643.6,738.3,654.6,711,661.4,684.2z"/>
		<path id="XMLID_1041_" class="st8" d="M1190.5,645.8c-19.8,13.8-39.9,28.6-63.9,37.6c0.1,0.2,0.2,0.5,0.2,0.7
			c6.9,26.8,17.8,54.1,32.6,81c0.1,0.2,0.2,0.4,0.3,0.6c36.2-17.9,69.5-42.8,99.6-75.3l-67.1-43.2
			C1191.7,646.8,1191.1,646.3,1190.5,645.8z"/>
		<path id="XMLID_1042_" class="st9" d="M578.2,578c2.6-5.5,1.7-11.9-3.4-15.2c-5.1-3.3-11.9-1.7-15.2,3.4c-6,9.4-6.1,10.8-8.6,20.3
			c-1,3.8-1.7,7.7-2.1,11.5c-3.8-6.1-7.2-11.9-10.3-17.6c-7.5-13.7-13.2-26.5-17.4-38.7c-1.9-5.7-8.2-8.8-13.9-6.9
			c-5.7,1.9-8.8,8.2-6.9,13.9c4.2,12.4,15.1,39.3,14.3,39.9c-1,0.7-19.5-22.6-26.3-36.1c-2.7-5.4-9.3-7.6-14.7-4.9
			c-5.4,2.7-7.6,9.3-4.9,14.7c7.5,15,25.8,43.5,25.6,43.8c-0.5,0.5-19.4-17.2-24.2-25.8c-2.9-5.3-9.6-7.2-14.9-4.3
			c-5.3,2.9-7.2,9.6-4.3,14.9c6.7,12.1,29.1,35.9,28.9,36.4c-0.2,0.7-13.7-8.4-17.7-13.3c-3.8-4.8-10.7-5.5-15.4-1.8
			c-4.7,3.8-5.5,10.7-1.8,15.4c14.6,18.4,43.9,34.7,71,45l60.8-39.1C570.4,619.8,567.2,601,578.2,578z"/>
		<path id="XMLID_1043_" class="st9" d="M1341.5,612.1c-4.7-3.8-11.7-3-15.4,1.8c-4,5-17.4,14-17.7,13.3
			c-0.2-0.5,22.2-24.3,28.9-36.4c2.9-5.3,1-12-4.3-14.9c-5.3-2.9-12-1-14.9,4.3c-4.8,8.6-23.7,26.3-24.2,25.8
			c-0.3-0.3,18.1-28.8,25.6-43.8c2.7-5.4,0.5-12-4.9-14.7c-5.4-2.7-12-0.5-14.7,4.9c-6.7,13.5-25.3,36.8-26.3,36.1
			c-0.8-0.6,10.1-27.5,14.3-39.9c1.9-5.7-1.1-12-6.9-13.9c-5.7-1.9-12,1.1-13.9,6.9c-4.1,12.2-9.9,25-17.4,38.7
			c-3.1,5.7-6.6,11.6-10.3,17.6c-0.4-3.8-1.1-7.7-2.1-11.5c-2.5-9.5-2.6-10.8-8.6-20.3c-3.3-5.1-10-6.6-15.2-3.4
			c-5.1,3.3-6,9.7-3.4,15.2c10.9,23,7.7,41.8,1.4,55.5l60.8,39.1c27-10.3,56.4-26.6,71-45C1347.1,622.8,1346.3,615.9,1341.5,612.1z"
			/>
		<path id="XMLID_1046_" class="st8" d="M774.8,673.3c18.3,17.9,41.5,30.9,67.4,36.8c0.1,0,0.1,0,0.2,0c1.1,0.2,2.1,0.5,3.2,0.7
			c0.1,0,0.2,0,0.4,0.1c1,0.2,2,0.4,3,0.6c0.2,0,0.4,0.1,0.6,0.1c0.9,0.2,1.9,0.3,2.8,0.5c0.3,0,0.6,0.1,0.9,0.1
			c0.9,0.1,1.7,0.2,2.6,0.4c0.4,0,0.8,0.1,1.1,0.1c0.8,0.1,1.6,0.2,2.4,0.3c0.5,0,0.9,0.1,1.4,0.1c0.7,0.1,1.4,0.1,2.1,0.2
			c0.6,0,1.2,0.1,1.8,0.1c0.6,0,1.2,0.1,1.8,0.1c0.8,0,1.6,0.1,2.3,0.1c0.4,0,0.8,0,1.3,0c1.2,0,2.4,0,3.6,0h41.1c1.2,0,2.4,0,3.6,0
			c0.4,0,0.9,0,1.3,0c0.8,0,1.5,0,2.3-0.1c0.6,0,1.2-0.1,1.8-0.1c0.6,0,1.2-0.1,1.8-0.1c0.7-0.1,1.4-0.1,2.1-0.2
			c0.5,0,0.9-0.1,1.4-0.1c0.8-0.1,1.6-0.2,2.4-0.3c0.4,0,0.8-0.1,1.1-0.1c0.9-0.1,1.7-0.2,2.6-0.4c0.3,0,0.6-0.1,0.9-0.1
			c0.9-0.1,1.9-0.3,2.8-0.5c0.2,0,0.4-0.1,0.6-0.1c1-0.2,2-0.4,3.1-0.6c0.1,0,0.2,0,0.3-0.1c1.1-0.2,2.2-0.4,3.2-0.7
			c0,0,0.1,0,0.1,0c25.9-5.9,49-18.9,67.4-36.8c0,0,0,0,0,0c11.7-11.4,21.4-24.8,28.6-39.7h0c4.9-10.1,8.6-20.9,11-32.2h0
			c1.7-8.2,2.8-16.7,3-25.4c0-0.1,0-0.2,0-0.2c0-1.2,0-2.5,0-3.8v-41.1c0-1.3,0-2.5,0-3.8c0-0.1,0-0.2,0-0.2
			c-0.2-8.7-1.3-17.2-3-25.4h0c-13.5-64.1-70.4-112.2-138.5-112.2h-41.1c-68.1,0-125,48.1-138.5,112.2h0c-1.7,8.2-2.8,16.6-3,25.3
			c0,0.1,0,0.3,0,0.4c0,1.2,0,2.5,0,3.7c0,0,0,0,0,0V572c0,1.3,0,2.5,0,3.7c0,0.1,0,0.3,0,0.4c0.3,8.6,1.3,17.1,3,25.3h0
			c2.4,11.3,6.1,22.1,11,32.2h0C753.4,648.4,763.1,661.8,774.8,673.3z M762.4,531.7c0-61.8,50.3-112,112-112h39.5
			c61.8,0,112,50.3,112,112v39.5c0,61.8-50.3,112-112,112h-39.5c-61.8,0-112-50.3-112-112V531.7z"/>
		<path id="XMLID_1047_" class="st10" d="M1039.4,686.4L1039.4,686.4c-2.4-4.3-6-7.8-10.3-10.1c-0.1-0.1-0.3-0.1-0.4-0.2
			c-0.3-0.2-0.6-0.3-1-0.5c-0.4-0.2-0.9-0.4-1.4-0.6c-0.2-0.1-0.4-0.1-0.6-0.2c-0.4-0.1-0.8-0.3-1.1-0.4c-0.2-0.1-0.4-0.1-0.5-0.2
			c-0.6-0.2-1.1-0.3-1.7-0.5c-1.9-0.5-3.9-0.7-5.9-0.7c-1,0-2,0.1-2.9,0.2c-18.3,17.9-41.5,30.9-67.4,36.8c0,0-0.1,0-0.1,0
			c-1.1,0.2-2.1,0.5-3.2,0.7c-0.1,0-0.2,0-0.3,0.1c-1,0.2-2,0.4-3.1,0.6c-0.2,0-0.4,0.1-0.6,0.1c-0.9,0.2-1.9,0.3-2.8,0.5
			c-0.3,0-0.6,0.1-0.9,0.1c-0.9,0.1-1.7,0.2-2.6,0.4c-0.4,0-0.8,0.1-1.1,0.1c-0.8,0.1-1.6,0.2-2.4,0.3c-0.5,0-0.9,0.1-1.4,0.1
			c-0.7,0.1-1.4,0.1-2.1,0.2c-0.6,0-1.2,0.1-1.8,0.1c-0.6,0-1.2,0.1-1.8,0.1c-0.8,0-1.5,0.1-2.3,0.1c-0.4,0-0.9,0-1.3,0
			c-1.2,0-2.4,0-3.6,0h-41.1c-1.2,0-2.4,0-3.6,0c-0.4,0-0.8,0-1.3,0c-0.8,0-1.6,0-2.3-0.1c-0.6,0-1.2-0.1-1.8-0.1
			c-0.6,0-1.2-0.1-1.8-0.1c-0.7-0.1-1.4-0.1-2.1-0.2c-0.5,0-1-0.1-1.4-0.1c-0.8-0.1-1.6-0.2-2.4-0.3c-0.4,0-0.8-0.1-1.1-0.1
			c-0.9-0.1-1.7-0.2-2.6-0.4c-0.3,0-0.6-0.1-0.9-0.1c-0.9-0.1-1.9-0.3-2.8-0.5c-0.2,0-0.4-0.1-0.6-0.1c-1-0.2-2-0.4-3-0.6
			c-0.1,0-0.2,0-0.4-0.1c-1.1-0.2-2.1-0.4-3.2-0.7c-0.1,0-0.1,0-0.2,0c-25.9-5.9-49-18.9-67.4-36.8c-1-0.1-1.9-0.2-2.9-0.2
			c-2,0-4,0.2-5.9,0.7c-0.6,0.1-1.1,0.3-1.7,0.5c-0.2,0.1-0.4,0.1-0.5,0.2c-0.4,0.1-0.8,0.3-1.1,0.4c-0.2,0.1-0.4,0.1-0.6,0.2
			c-0.5,0.2-0.9,0.4-1.4,0.6c-0.3,0.2-0.6,0.3-1,0.5c-0.1,0.1-0.2,0.1-0.4,0.2c-4.4,2.3-7.9,5.9-10.3,10.1l0,0
			c-1.1,1.9-1.9,4-2.5,6.1c0,0,0,0,0,0c-0.2,0.7-0.4,1.5-0.5,2.2c-1.9,10.6,2.5,20.9,11.5,26.8c32.1,21.2,70.8,32.4,111.9,32.4H919
			c41.1,0,79.8-11.2,111.9-32.4c9-6,13.4-16.2,11.5-26.8c-0.1-0.8-0.3-1.5-0.5-2.2c0,0,0,0,0,0
			C1041.3,690.3,1040.5,688.3,1039.4,686.4L1039.4,686.4C1039.4,686.4,1039.4,686.4,1039.4,686.4z"/>
		<path id="XMLID_1048_" class="st11" d="M1013.6,673.3C1013.6,673.3,1013.6,673.3,1013.6,673.3c1-0.1,1.9-0.2,2.9-0.2
			c2,0,4,0.2,5.9,0.7c0.6,0.1,1.1,0.3,1.7,0.5c0.2,0.1,0.4,0.1,0.5,0.2c0.4,0.1,0.8,0.3,1.1,0.4c0.2,0.1,0.4,0.1,0.6,0.2
			c0.5,0.2,0.9,0.4,1.4,0.6c0.3,0.2,0.6,0.3,1,0.5c0.1,0.1,0.3,0.1,0.4,0.2c4.4,2.3,7.9,5.9,10.3,10.1l0,0c0,0,0,0,0,0
			c1.2,0.3,2.3,0.6,3.4,0.9c0.3,0.1,0.5,0.1,0.8,0.2c0.9,0.2,1.7,0.4,2.6,0.6c0.3,0.1,0.5,0.1,0.8,0.2c0.9,0.2,1.7,0.4,2.6,0.6
			c0.2,0,0.4,0.1,0.6,0.1c0.9,0.2,1.9,0.4,2.8,0.5c0.1,0,0.2,0,0.4,0.1c1,0.2,2,0.4,3,0.5c0,0,0.1,0,0.1,0c12,1.9,23.1,2.3,33.5,1.6
			l0.7-12.4c1.4-25-15.6-45.6-38-45.6h-10.5h0C1035,648.4,1025.3,661.9,1013.6,673.3z"/>
		<path id="XMLID_1049_" class="st11" d="M1056.3,797.7c-5.3,58.5-15.4,115.2-31.7,169.5c7.8,0.2,14.3,5.6,16.2,12.8h32.8
			l10.7-187.5l0,0C1075.1,794.6,1065.7,796.3,1056.3,797.7z"/>
		<path id="XMLID_1050_" class="st11" d="M763.8,967.2c-16.3-54.3-26.4-111-31.7-169.5c-9.5-1.4-18.8-3.2-27.9-5.3l0,0L714.8,980
			h32.8C749.5,972.8,756,967.4,763.8,967.2z"/>
		<path id="XMLID_1051_" class="st11" d="M734.9,689.5c0.1,0,0.2,0,0.4-0.1c0.9-0.2,1.8-0.3,2.8-0.5c0.2,0,0.4-0.1,0.6-0.1
			c0.9-0.2,1.7-0.4,2.6-0.6c0.3-0.1,0.5-0.1,0.8-0.2c0.9-0.2,1.7-0.4,2.6-0.6c0.3-0.1,0.5-0.1,0.8-0.2c1.1-0.3,2.3-0.6,3.4-0.9l0,0
			l0,0c2.4-4.3,5.9-7.8,10.3-10.1c0.1-0.1,0.2-0.1,0.4-0.2c0.3-0.2,0.6-0.3,1-0.5c0.4-0.2,0.9-0.4,1.4-0.6c0.2-0.1,0.4-0.1,0.6-0.2
			c0.4-0.1,0.8-0.3,1.1-0.4c0.2-0.1,0.4-0.1,0.5-0.2c0.6-0.2,1.1-0.3,1.7-0.5c1.9-0.5,3.9-0.7,5.9-0.7c1,0,2,0.1,2.9,0.2
			c-11.7-11.4-21.4-24.8-28.6-39.7h0h-10.5c-22.4,0-39.4,20.6-38,45.6l0.7,12.4c10.4,0.8,21.4,0.4,33.5-1.6c0,0,0.1,0,0.1,0
			C732.9,689.8,733.9,689.7,734.9,689.5z"/>
		<path id="XMLID_1054_" class="st12" d="M874.4,683.2h39.5c61.8,0,112-50.3,112-112v-39.5c0-61.8-50.3-112-112-112h-39.5
			c-61.8,0-112,50.3-112,112v39.5C762.4,633,812.7,683.2,874.4,683.2z M786.5,571.2v-41.6c0-47.4,38.4-85.8,85.8-85.8h41.6
			c12.1,0,23.6,2.4,34,6.9c-0.9,0-1.8-0.1-2.7-0.1H896c-56.7,0-102.7,46-102.7,102.7v49.2c0,0.9,0,1.8,0.1,2.7
			C789,594.7,786.5,583.2,786.5,571.2z"/>
		<path id="XMLID_1055_" class="st13" d="M793.3,553.3c0-56.7,46-102.7,102.7-102.7h49.2c0.9,0,1.8,0,2.7,0.1
			c-10.5-4.4-22-6.9-34-6.9h-41.6c-47.4,0-85.8,38.4-85.8,85.8v41.6c0,12.1,2.4,23.6,6.9,34c0-0.9-0.1-1.8-0.1-2.7V553.3z"/>
		<path id="XMLID_1056_" class="st9" d="M1067.2,601.3c13.5,0,24.4-10.9,24.4-24.4v-9.6V526c0-13.5-10.9-24.4-24.4-24.4h-2.6v99.8
			H1067.2z"/>
		<path id="XMLID_1057_" class="st9" d="M1056.3,572v-41.1c0-10.1-1.1-19.9-3.1-29.4c1.7,8.2,2.8,16.7,3,25.4c0,0.1,0,0.2,0,0.2
			c0,1.2,0,2.5,0,3.8L1056.3,572c0,1.3,0,2.5-0.1,3.8c0,0.1,0,0.2,0,0.2c-0.2,8.7-1.3,17.2-3,25.4
			C1055.2,591.9,1056.3,582,1056.3,572z"/>
		<path id="XMLID_1058_" class="st9" d="M721.2,501.5c-13.5,0-24.4,10.9-24.4,24.4v41.3v9.6c0,13.5,10.9,24.4,24.4,24.4h2.6v-99.8
			H721.2z"/>
		<path id="XMLID_1061_" class="st14" d="M954.1,775.7H834.3c-10.8,0-19.6,8.8-19.6,19.6V915c0,10.8,8.8,19.6,19.6,19.6h119.8
			c10.8,0,19.6-8.8,19.6-19.6V795.3C973.7,784.4,964.9,775.7,954.1,775.7z M858.2,906.8c-12.4,0-22.5-10.1-22.5-22.5
			c0-12.4,10.1-22.5,22.5-22.5c12.4,0,22.5,10.1,22.5,22.5C880.7,896.7,870.6,906.8,858.2,906.8z M858.2,848.5
			c-12.4,0-22.5-10.1-22.5-22.5c0-12.4,10.1-22.5,22.5-22.5c12.4,0,22.5,10.1,22.5,22.5C880.7,838.4,870.6,848.5,858.2,848.5z
			 M955.4,888.3c0,2.1-1.7,3.9-3.9,3.9h-50.1c-2.1,0-3.9-1.7-3.9-3.9v-8c0-2.1,1.7-3.9,3.9-3.9h50.1c2.1,0,3.9,1.7,3.9,3.9V888.3z
			 M955.4,830c0,2.1-1.7,3.9-3.9,3.9h-50.1c-2.1,0-3.9-1.7-3.9-3.9v-8c0-2.1,1.7-3.9,3.9-3.9h50.1c2.1,0,3.9,1.7,3.9,3.9V830z"/>
		<path id="XMLID_1067_" class="st8" d="M858.2,803.5c-12.4,0-22.5,10.1-22.5,22.5c0,12.4,10.1,22.5,22.5,22.5
			c12.4,0,22.5-10.1,22.5-22.5C880.7,813.6,870.6,803.5,858.2,803.5z M858.2,843c-9.4,0-17-7.6-17-17c0-9.4,7.6-17,17-17
			c9.4,0,17,7.6,17,17C875.2,835.4,867.6,843,858.2,843z"/>
		<circle id="XMLID_1068_" class="st15" cx="858.2" cy="826" r="17"/>
		<path id="XMLID_1071_" class="st8" d="M858.2,861.8c-12.4,0-22.5,10.1-22.5,22.5c0,12.4,10.1,22.5,22.5,22.5
			c12.4,0,22.5-10.1,22.5-22.5C880.7,871.9,870.6,861.8,858.2,861.8z M858.2,901.3c-9.4,0-17-7.6-17-17s7.6-17,17-17
			c9.4,0,17,7.6,17,17S867.6,901.3,858.2,901.3z"/>
		<circle id="XMLID_1072_" class="st15" cx="858.2" cy="884.3" r="17"/>
		<path id="XMLID_1073_" class="st16" d="M951.5,818.1h-50.1c-2.1,0-3.9,1.7-3.9,3.9v8c0,2.1,1.7,3.9,3.9,3.9h50.1
			c2.1,0,3.9-1.7,3.9-3.9v-8C955.4,819.9,953.6,818.1,951.5,818.1z"/>
		<path id="XMLID_1074_" class="st16" d="M951.5,876.5h-50.1c-2.1,0-3.9,1.7-3.9,3.9v8c0,2.1,1.7,3.9,3.9,3.9h50.1
			c2.1,0,3.9-1.7,3.9-3.9v-8C955.4,878.2,953.6,876.5,951.5,876.5z"/>
		<path id="XMLID_1075_" class="st10" d="M1126.9,684.2c-0.1-0.3-0.1-0.5-0.2-0.7c-1.8-5.4-7.5-8.6-13.1-7.2
			c-5.8,1.5-9.4,7.4-7.9,13.2c0,0,0,0.1,0,0.1c7.2,28.3,18.7,57,34.2,85.3c0.2,0.3,0.3,0.6,0.5,0.9c2,3.6,5.8,5.7,9.6,5.7
			c1.8,0,3.6-0.4,5.3-1.4c5.1-2.8,7.1-9.1,4.6-14.3c-0.1-0.2-0.2-0.4-0.3-0.6C1144.7,738.3,1133.8,711,1126.9,684.2z"/>
		<path id="XMLID_1076_" class="st10" d="M1204.2,628.8c-5.1-3.3-11.9-1.8-15.2,3.3c-2.9,4.4-2.1,10.2,1.5,13.8
			c0.5,0.5,1.1,1,1.8,1.4l67.1,43.2l1.1,0.7c1.8,1.2,3.9,1.7,5.9,1.7c3.6,0,7.1-1.8,9.2-5c3.3-5.1,1.8-11.9-3.3-15.2l-0.1-0.1
			l-60.8-39.1L1204.2,628.8z"/>
		<path id="XMLID_1077_" class="st10" d="M764.2,967.2c-0.2,0-0.3,0-0.5,0c-7.8,0.2-14.3,5.6-16.2,12.8H855v-12.8H764.2z"/>
		<path id="XMLID_1078_" class="st10" d="M1024.6,967.2c-0.2,0-0.3,0-0.5,0h-90.7V980h107.4C1038.9,972.8,1032.4,967.4,1024.6,967.2
			z"/>
		<path id="XMLID_1079_" class="st10" d="M682.7,689.5c1.4-5.8-2.1-11.7-7.9-13.2c-5.6-1.4-11.3,1.8-13.1,7.2
			c-0.1,0.2-0.2,0.5-0.2,0.7c-6.9,26.8-17.8,54.1-32.6,81c-0.1,0.2-0.2,0.4-0.3,0.6c-2.5,5.2-0.5,11.5,4.6,14.3
			c1.7,0.9,3.5,1.4,5.3,1.4c3.9,0,7.6-2.1,9.6-5.7c0.2-0.3,0.3-0.6,0.5-0.9c15.4-28.3,27-56.9,34.2-85.3
			C682.7,689.5,682.7,689.5,682.7,689.5z"/>
		<path id="XMLID_1080_" class="st10" d="M597.8,645.8c3.6-3.6,4.4-9.3,1.5-13.8c-3.3-5.1-10.1-6.6-15.2-3.3l-7.3,4.7L516,672.6
			l-0.1,0.1c-5.1,3.3-6.6,10.1-3.3,15.2c2.1,3.3,5.6,5,9.2,5c2,0,4.1-0.6,5.9-1.7l1.1-0.7l67.1-43.2
			C596.7,646.8,597.3,646.3,597.8,645.8z"/>
		<path id="XMLID_1081_" class="st17" d="M732.1,576.1c0-0.1,0-0.3,0-0.4c0-1.2,0-2.5,0-3.7v-41.1v0c0,0,0,0,0,0c0-1.3,0-2.5,0-3.7
			c0-0.1,0-0.3,0-0.4c0.3-8.6,1.3-17.1,3-25.3h0h-11.3v99.8h11.3h0C733.4,593.2,732.4,584.7,732.1,576.1z"/>
		<path id="XMLID_1082_" class="st17" d="M1056.3,530.9V572c0,10.1-1.1,19.9-3.1,29.4h0h11.3v-99.8h-11.3h0
			C1055.2,511,1056.3,520.8,1056.3,530.9z"/>
		<path id="XMLID_1083_" class="st17" d="M696.8,466.5c0-2.7-2.2-4.9-4.9-4.9s-4.9,2.2-4.9,4.9v73.8v22.2v4.7c0,2.7,2.2,4.9,4.9,4.9
			s4.9-2.2,4.9-4.9V526V466.5z"/>
		<path id="XMLID_1084_" class="st9" d="M679.5,547.8v7.3c0,4.1,3.3,7.5,7.5,7.5v-22.2C682.8,540.3,679.5,543.7,679.5,547.8z"/>
		<path id="XMLID_1085_" class="st17" d="M1096.5,572.2c2.7,0,4.9-2.2,4.9-4.9v-4.7v-22.2v-73.8c0-2.7-2.2-4.9-4.9-4.9
			s-4.9,2.2-4.9,4.9V526v41.3C1091.6,570,1093.8,572.2,1096.5,572.2z"/>
		<path id="XMLID_1086_" class="st9" d="M1108.9,555.1v-7.3c0-4.1-3.3-7.5-7.5-7.5v22.2C1105.5,562.5,1108.9,559.2,1108.9,555.1z"/>
		<path id="XMLID_1087_" class="st14" d="M933.4,962.7c0-5-4-9-9-9H864c-5,0-9,4-9,9v4.5V980h12.7c1.7-4.2,5.8-7.1,10.6-7.1
			c4.8,0,8.9,2.9,10.6,7.1h10.5c1.7-4.2,5.8-7.1,10.6-7.1s8.9,2.9,10.6,7.1h12.7v-12.8V962.7z"/>
		<path id="XMLID_1088_" class="st11" d="M878.3,972.9c-4.8,0-8.9,2.9-10.6,7.1h21.3C887.2,975.8,883.1,972.9,878.3,972.9z"/>
		<path id="XMLID_1089_" class="st11" d="M910.1,972.9c-4.8,0-8.9,2.9-10.6,7.1h21.3C919,975.8,914.9,972.9,910.1,972.9z"/>
	</g>
	<path id="XMLID_1117_" class="st18" d="M606.4,496.1c52.8,2.9,101.9-15.1,139.2-46.8l71.6,13.7l-24.9-71.7
		c13.1-24.6,21.2-52.4,22.9-82.1c6-109.3-77.6-202.7-186.9-208.8c-109.3-6-202.7,77.6-208.8,186.9
		C413.5,396.6,497.1,490,606.4,496.1z"/>
	<g id="XMLID_993_">
		<path id="XMLID_1114_" class="st8" d="M481.9,235h13.3c3.5,0,6.4,0.3,8.9,1c2.5,0.6,4.7,1.8,6.7,3.6c5.2,4.5,7.9,11.3,7.9,20.5
			c0,3-0.3,5.8-0.8,8.3c-0.5,2.5-1.3,4.7-2.4,6.8c-1.1,2-2.5,3.8-4.2,5.4c-1.4,1.2-2.8,2.2-4.4,2.9c-1.6,0.7-3.3,1.2-5.2,1.5
			c-1.8,0.3-3.9,0.4-6.2,0.4h-13.3c-1.9,0-3.3-0.3-4.2-0.8c-0.9-0.6-1.6-1.4-1.8-2.4c-0.3-1-0.4-2.3-0.4-4v-37
			c0-2.2,0.5-3.8,1.5-4.8C478.1,235.5,479.7,235,481.9,235z M485.9,243.1v34.2h7.7c1.7,0,3,0,4-0.1c1-0.1,2-0.3,3-0.7
			s1.9-0.9,2.7-1.5c3.4-2.9,5.1-7.9,5.1-14.9c0-5-0.8-8.7-2.3-11.2c-1.5-2.5-3.4-4.1-5.6-4.7c-2.2-0.7-4.9-1-8-1H485.9z"/>
		<path id="XMLID_1112_" class="st8" d="M528.1,280v-39.7c0-2.1,0.5-3.6,1.4-4.6c0.9-1,2.2-1.5,3.6-1.5c1.5,0,2.8,0.5,3.7,1.5
			c1,1,1.4,2.6,1.4,4.7V280c0,2.1-0.5,3.6-1.4,4.7c-1,1-2.2,1.5-3.7,1.5c-1.5,0-2.7-0.5-3.6-1.6C528.6,283.6,528.1,282.1,528.1,280z
			"/>
		<path id="XMLID_1109_" class="st8" d="M556.1,235h13.3c3.5,0,6.4,0.3,8.9,1c2.5,0.6,4.7,1.8,6.7,3.6c5.2,4.5,7.9,11.3,7.9,20.5
			c0,3-0.3,5.8-0.8,8.3c-0.5,2.5-1.3,4.7-2.4,6.8c-1.1,2-2.5,3.8-4.2,5.4c-1.4,1.2-2.8,2.2-4.4,2.9c-1.6,0.7-3.3,1.2-5.2,1.5
			c-1.8,0.3-3.9,0.4-6.2,0.4h-13.3c-1.9,0-3.3-0.3-4.2-0.8c-0.9-0.6-1.6-1.4-1.8-2.4c-0.3-1-0.4-2.3-0.4-4v-37
			c0-2.2,0.5-3.8,1.5-4.8C552.3,235.5,553.9,235,556.1,235z M560,243.1v34.2h7.7c1.7,0,3,0,4-0.1c1-0.1,2-0.3,3-0.7s1.9-0.9,2.7-1.5
			c3.4-2.9,5.1-7.9,5.1-14.9c0-5-0.8-8.7-2.3-11.2c-1.5-2.5-3.4-4.1-5.6-4.7c-2.2-0.7-4.9-1-8-1H560z"/>
		<path id="XMLID_1107_" class="st8" d="M630.7,280v-16L618.4,245c-1.1-1.7-1.8-3.1-2.3-4c-0.4-1-0.7-1.8-0.7-2.5
			c0-1.2,0.5-2.2,1.4-3c0.9-0.8,2-1.3,3.4-1.3c1.4,0,2.5,0.4,3.2,1.2c0.7,0.8,1.8,2.4,3.2,4.7l9.4,15.3l9.5-15.3
			c0.6-0.9,1.1-1.7,1.4-2.4c0.4-0.6,0.8-1.2,1.3-1.8c0.5-0.6,1-1,1.6-1.3c0.6-0.3,1.3-0.4,2.1-0.4c1.3,0,2.4,0.4,3.2,1.3
			c0.9,0.8,1.3,1.8,1.3,2.9c0,0.9-0.2,1.8-0.7,2.7c-0.4,0.9-1.2,2.1-2.2,3.7L640.9,264v16c0,2.1-0.5,3.6-1.4,4.7
			c-1,1-2.2,1.5-3.7,1.5c-1.5,0-2.7-0.5-3.7-1.5C631.2,283.7,630.7,282.1,630.7,280z"/>
		<path id="XMLID_1104_" class="st8" d="M684.7,234.1c5.2,0,9.7,1.1,13.5,3.2c3.7,2.1,6.6,5.1,8.5,9c1.9,3.9,2.9,8.5,2.9,13.8
			c0,3.9-0.5,7.4-1.6,10.6c-1.1,3.2-2.6,5.9-4.7,8.3c-2.1,2.3-4.7,4.1-7.8,5.4c-3.1,1.2-6.6,1.9-10.6,1.9c-3.9,0-7.5-0.6-10.6-1.9
			c-3.1-1.3-5.7-3.1-7.8-5.4c-2.1-2.3-3.7-5.1-4.7-8.4c-1.1-3.3-1.6-6.8-1.6-10.6c0-3.9,0.6-7.4,1.7-10.7c1.1-3.2,2.7-6,4.8-8.2
			c2.1-2.3,4.7-4,7.7-5.2C677.4,234.7,680.9,234.1,684.7,234.1z M699.2,260.1c0-3.7-0.6-6.9-1.8-9.6c-1.2-2.7-2.9-4.7-5.1-6.1
			c-2.2-1.4-4.7-2.1-7.6-2.1c-2,0-3.9,0.4-5.7,1.2c-1.7,0.8-3.2,1.9-4.5,3.4c-1.2,1.5-2.2,3.3-3,5.6c-0.7,2.3-1.1,4.8-1.1,7.7
			c0,2.9,0.4,5.5,1.1,7.8c0.7,2.3,1.7,4.2,3.1,5.8c1.3,1.5,2.8,2.7,4.5,3.4c1.7,0.8,3.6,1.1,5.6,1.1c2.6,0,5-0.7,7.2-2
			c2.2-1.3,3.9-3.3,5.2-6C698.6,267.4,699.2,264,699.2,260.1z"/>
		<path id="XMLID_1102_" class="st8" d="M718.4,264.6v-24.2c0-2.1,0.5-3.6,1.4-4.6c0.9-1,2.1-1.5,3.7-1.5c1.6,0,2.8,0.5,3.8,1.5
			c0.9,1,1.4,2.6,1.4,4.6v24.8c0,2.8,0.3,5.2,0.9,7.1c0.6,1.9,1.7,3.4,3.4,4.4c1.6,1,3.8,1.6,6.7,1.6c4,0,6.8-1.1,8.5-3.2
			c1.7-2.1,2.5-5.3,2.5-9.6v-25c0-2.1,0.5-3.6,1.4-4.7c0.9-1,2.1-1.5,3.7-1.5c1.5,0,2.8,0.5,3.7,1.5c1,1,1.4,2.6,1.4,4.7v24.2
			c0,3.9-0.4,7.2-1.2,9.9c-0.8,2.6-2.2,4.9-4.3,6.9c-1.8,1.7-4,2.9-6.4,3.7c-2.4,0.8-5.3,1.2-8.5,1.2c-3.9,0-7.2-0.4-10-1.3
			c-2.8-0.8-5.1-2.1-6.8-3.9c-1.8-1.8-3.1-4-3.9-6.7C718.8,271.6,718.4,268.4,718.4,264.6z"/>
		<path id="XMLID_1100_" class="st8" d="M498.2,316.5v17.7l20-20.9c1-1,1.8-1.8,2.5-2.2c0.7-0.5,1.6-0.7,2.7-0.7
			c1.5,0,2.7,0.4,3.6,1.3c0.9,0.9,1.4,1.9,1.4,3.1c0,1.5-0.8,3-2.3,4.4l-12.4,11.8l14.3,20.5c1,1.4,1.8,2.7,2.3,3.7
			c0.5,1.1,0.8,2.1,0.8,3.1c0,1.1-0.4,2.1-1.3,2.9c-0.9,0.8-2.1,1.2-3.6,1.2c-1.4,0-2.6-0.3-3.5-0.9c-0.9-0.6-1.6-1.4-2.3-2.4
			c-0.6-1-1.2-1.9-1.7-2.7l-12.1-18.6l-8.4,8v10.4c0,2.1-0.5,3.7-1.4,4.7c-1,1-2.2,1.5-3.7,1.5c-0.9,0-1.7-0.2-2.5-0.7
			c-0.8-0.5-1.4-1.1-1.9-1.9c-0.3-0.6-0.5-1.4-0.6-2.2c-0.1-0.8-0.1-2.1-0.1-3.7v-37.5c0-2.1,0.5-3.6,1.4-4.6c0.9-1,2.1-1.5,3.7-1.5
			c1.5,0,2.8,0.5,3.7,1.5C497.7,312.8,498.2,314.4,498.2,316.5z"/>
		<path id="XMLID_1098_" class="st8" d="M553.3,316.4l19.6,29.7v-30c0-1.9,0.4-3.4,1.3-4.4c0.8-1,2-1.5,3.4-1.5
			c1.5,0,2.6,0.5,3.5,1.5c0.8,1,1.3,2.4,1.3,4.4v39.6c0,4.4-1.8,6.6-5.5,6.6c-0.9,0-1.7-0.1-2.5-0.4c-0.7-0.3-1.4-0.7-2.1-1.3
			c-0.6-0.6-1.2-1.2-1.8-2c-0.6-0.8-1.1-1.6-1.7-2.4L549.7,327v29.5c0,1.9-0.4,3.4-1.3,4.4c-0.9,1-2,1.5-3.4,1.5
			c-1.4,0-2.6-0.5-3.5-1.5c-0.9-1-1.3-2.4-1.3-4.3v-38.9c0-1.7,0.2-2.9,0.6-3.9c0.4-1,1.2-1.9,2.2-2.5c1-0.7,2.1-1,3.3-1
			c0.9,0,1.7,0.1,2.4,0.4c0.7,0.3,1.2,0.7,1.7,1.2c0.5,0.5,1,1.2,1.5,2C552.2,314.7,552.7,315.5,553.3,316.4z"/>
		<path id="XMLID_1095_" class="st8" d="M615.6,310.3c5.2,0,9.7,1.1,13.5,3.2c3.7,2.1,6.6,5.1,8.5,9c1.9,3.9,2.9,8.5,2.9,13.8
			c0,3.9-0.5,7.4-1.6,10.6c-1.1,3.2-2.6,5.9-4.7,8.3c-2.1,2.3-4.7,4.1-7.8,5.4c-3.1,1.2-6.6,1.9-10.6,1.9c-3.9,0-7.5-0.6-10.6-1.9
			c-3.1-1.3-5.7-3.1-7.8-5.4c-2.1-2.3-3.7-5.1-4.7-8.4c-1.1-3.3-1.6-6.8-1.6-10.6c0-3.9,0.6-7.4,1.7-10.7c1.1-3.2,2.7-6,4.8-8.2
			c2.1-2.3,4.7-4,7.7-5.2C608.4,310.9,611.8,310.3,615.6,310.3z M630.2,336.2c0-3.7-0.6-6.9-1.8-9.6c-1.2-2.7-2.9-4.7-5.1-6.1
			c-2.2-1.4-4.7-2.1-7.6-2.1c-2,0-3.9,0.4-5.7,1.2c-1.7,0.8-3.2,1.9-4.5,3.4c-1.2,1.5-2.2,3.3-3,5.6c-0.7,2.3-1.1,4.8-1.1,7.7
			c0,2.9,0.4,5.5,1.1,7.8c0.7,2.3,1.7,4.2,3.1,5.8c1.3,1.5,2.8,2.7,4.5,3.4c1.7,0.8,3.6,1.1,5.6,1.1c2.6,0,5-0.7,7.2-2
			s3.9-3.3,5.2-6C629.5,343.5,630.2,340.2,630.2,336.2z"/>
		<path id="XMLID_1093_" class="st8" d="M685.8,353.6l-8.1-30.2l-8.2,30.2c-0.6,2.3-1.2,3.9-1.5,4.9c-0.4,1-1,1.9-2,2.7
			c-0.9,0.8-2.2,1.2-3.7,1.2c-1.3,0-2.3-0.2-3.1-0.7c-0.8-0.5-1.5-1.1-2-2c-0.5-0.9-0.9-1.9-1.2-3.1c-0.3-1.2-0.6-2.3-0.9-3.3
			l-8.4-33.9c-0.5-2-0.8-3.5-0.8-4.5c0-1.3,0.5-2.4,1.4-3.3c0.9-0.9,2.1-1.3,3.4-1.3c1.9,0,3.1,0.6,3.7,1.8c0.6,1.2,1.2,2.9,1.7,5.2
			l6.6,29.4l7.4-27.5c0.6-2.1,1-3.7,1.5-4.8c0.4-1.1,1.1-2.1,2.1-2.9c1-0.8,2.3-1.2,4-1.2c1.7,0,3.1,0.4,4,1.3c1,0.8,1.6,1.7,2,2.7
			c0.4,1,0.9,2.6,1.5,4.9l7.5,27.5l6.6-29.4c0.3-1.5,0.6-2.7,0.9-3.6c0.3-0.9,0.8-1.6,1.5-2.3c0.7-0.7,1.7-1,3-1
			c1.3,0,2.5,0.4,3.4,1.3c0.9,0.9,1.4,2,1.4,3.3c0,0.9-0.3,2.4-0.8,4.5l-8.4,33.9c-0.6,2.3-1,4-1.4,5c-0.4,1.1-1,2-1.9,2.8
			c-0.9,0.8-2.2,1.2-3.8,1.2c-1.6,0-2.8-0.4-3.7-1.2c-0.9-0.8-1.6-1.7-2-2.6C686.9,357.6,686.4,355.9,685.8,353.6z"/>
		<path id="XMLID_1090_" class="st8" d="M716.7,324.6c0-2.2,0.7-4.4,2.1-6.6c1.4-2.2,3.4-4.1,6.1-5.6c2.7-1.5,5.8-2.2,9.4-2.2
			c3.3,0,6.3,0.6,8.8,1.8c2.5,1.2,4.5,2.9,5.9,5c1.4,2.1,2.1,4.4,2.1,6.9c0,1.9-0.4,3.7-1.2,5.1c-0.8,1.5-1.7,2.7-2.8,3.8
			c-1.1,1.1-3,2.9-5.9,5.4c-0.8,0.7-1.4,1.3-1.9,1.9c-0.5,0.5-0.8,1-1,1.5c-0.2,0.4-0.4,0.9-0.5,1.3c-0.1,0.4-0.3,1.2-0.6,2.4
			c-0.4,2.4-1.8,3.6-4.1,3.6c-1.2,0-2.2-0.4-3-1.2c-0.8-0.8-1.2-1.9-1.2-3.5c0-1.9,0.3-3.6,0.9-5c0.6-1.4,1.4-2.6,2.4-3.7
			c1-1.1,2.3-2.3,4-3.8c1.5-1.3,2.5-2.3,3.2-2.9s1.2-1.4,1.7-2.2c0.4-0.8,0.7-1.7,0.7-2.6c0-1.8-0.7-3.4-2-4.6
			c-1.4-1.3-3.1-1.9-5.3-1.9c-2.5,0-4.4,0.6-5.6,1.9c-1.2,1.3-2.2,3.1-3,5.6c-0.8,2.6-2.3,3.9-4.4,3.9c-1.3,0-2.4-0.5-3.2-1.4
			C717.2,326.7,716.7,325.7,716.7,324.6z M733.5,362.3c-1.4,0-2.6-0.5-3.7-1.4c-1-0.9-1.6-2.2-1.6-3.8c0-1.4,0.5-2.7,1.5-3.6
			c1-1,2.2-1.5,3.7-1.5c1.4,0,2.7,0.5,3.6,1.5c1,1,1.5,2.2,1.5,3.6c0,1.6-0.5,2.9-1.5,3.8C736.1,361.9,734.9,362.3,733.5,362.3z"/>
	</g>
	<g id="XMLID_1391_">
		<path id="XMLID_1314_" class="st19" d="M270,781.1c12.2,1.7,25-0.8,36.1-8.2c17-11.3,25.2-30.9,22.9-49.9
			c-6.1,11-14.9,22.5-26,33.3C292.3,766.8,280.8,775.2,270,781.1z"/>
		<path id="XMLID_1313_" class="st20" d="M278.8,677.4c-10.5-0.3-21.1,2.4-30.5,8.7c-18.6,12.4-26.7,34.6-22,55.1l0,0c0,0,0,0,0,0
			c1.4,6,3.8,11.8,7.4,17.2c6.2,9.4,15,16,24.8,19.8c10.5,0.3,21.1-2.4,30.5-8.7c24-15.9,30.5-48.3,14.6-72.3
			C297.4,687.8,288.6,681.1,278.8,677.4z"/>
		<g id="XMLID_1308_">
			<path id="XMLID_1312_" class="st19" d="M228.2,747.2c0-0.1-0.1-0.3-0.1-0.4c0,0,0,0,0,0C228.1,747,228.2,747.1,228.2,747.2z"/>
			<path id="XMLID_1311_" class="st19" d="M249.7,773.8C249.7,773.8,249.8,773.8,249.7,773.8c-1-0.7-2.1-1.4-3.1-2.1
				C247.7,772.4,248.7,773.1,249.7,773.8z"/>
			<path id="XMLID_1310_" class="st19" d="M294.6,680.3c-1.9,0.6-3.8,1.3-5.8,2.2c5.7,3.7,10.8,8.6,14.8,14.7
				c5.9,8.9,8.7,18.9,8.7,28.7c5-7.7,8.6-15.2,10.3-22c-0.6-1.1-1.3-2.2-2-3.3C314.1,690.8,304.9,683.9,294.6,680.3z"/>
			<path id="XMLID_1309_" class="st19" d="M290.3,679c-9.1-2.4-18.9-2.2-28.1,0.5c5.5-1.6,11.1-2.3,16.6-2.2c2.6,1,5.2,2.2,7.6,3.6
				c0.8,0.5,1.6,1,2.4,1.5c2-0.8,3.9-1.6,5.8-2.2C293.2,679.8,291.8,679.4,290.3,679z"/>
		</g>
		<path id="XMLID_1307_" class="st21" d="M333.5,677c-8.3-8.5-24.7-7-43.2,2c1.4,0.4,2.9,0.8,4.3,1.3c10.8-3.4,19.9-2.9,25.1,2.4
			c4.5,4.6,5.3,12.2,3,21.2c-3.4,12.9-13.1,28.6-27.6,42.8c-15.2,14.9-32.1,24.5-45.3,27.1c-8.2,1.6-15,0.4-19.2-3.9
			c-4.8-4.9-5.4-13.2-2.5-23c-0.7-1.9-1.2-3.8-1.7-5.7c-9.8,18.6-11.8,35.3-3.4,43.9c8.8,9,27,6.8,46.9-4
			c10.9-5.9,22.3-14.3,33-24.8c11-10.8,19.8-22.3,26-33.3C339.8,703.6,342.2,685.9,333.5,677z"/>
		<path id="XMLID_1393_" class="st22" d="M238.7,787.7c-5.9,0-10.4-1.6-13.5-4.7c-5.3-5.4-5.8-15.2-1.8-27.3
			c-0.4,6.8,1.3,12.5,5,16.3c3.5,3.6,8.6,5.4,14.8,5.4c2.2,0,4.6-0.2,7.1-0.7c14.3-2.7,31.8-13.2,46.9-27.9
			c14.4-14.1,24.8-30.2,28.4-44.2c2.7-10.5,1.4-18.8-3.7-24.1c-3-3-7.1-4.9-12.1-5.3c2.9-0.6,5.6-0.9,8.2-0.9
			c5.9,0,10.4,1.6,13.5,4.7c7.3,7.5,5.4,23.8-5,42.5c-6.2,11.1-15,22.4-25.4,32.6c-10.2,10-21.4,18.4-32.3,24.3
			C257.4,784.5,247,787.7,238.7,787.7C238.7,787.7,238.7,787.7,238.7,787.7z"/>
		<path id="XMLID_1306_" class="st23" d="M329.4,728.5c0-1.8-0.2-3.7-0.4-5.5c-6.1,11-14.9,22.5-26,33.3
			c-10.7,10.5-22.2,18.9-33,24.8c2,0.3,4.1,0.4,6.1,0.5c9.6-5.7,19.4-13.2,28.8-22.4C315.1,749.2,323.3,738.7,329.4,728.5z"/>
		<path id="XMLID_1341_" class="st19" d="M260.1,703.8c-4.8,0-8.7,3.9-8.7,8.7c0,4.8,3.9,8.7,8.7,8.7c4.8,0,8.7-3.9,8.7-8.7
			C268.7,707.7,264.8,703.8,260.1,703.8z M259.2,720.7c-4.1,0-7.5-3.4-7.5-7.5c0-4.1,3.4-7.5,7.5-7.5c4.1,0,7.5,3.4,7.5,7.5
			C266.7,717.3,263.3,720.7,259.2,720.7z"/>
		<path id="XMLID_1356_" class="st19" d="M246.6,751.9c-2.2,0-4,1.8-4,4c0,2.2,1.8,4,4,4c2.2,0,4-1.8,4-4
			C250.7,753.7,248.9,751.9,246.6,751.9z M246.2,759.7c-1.9,0-3.5-1.6-3.5-3.5c0-1.9,1.6-3.5,3.5-3.5s3.5,1.6,3.5,3.5
			C249.7,758.2,248.2,759.7,246.2,759.7z"/>
		<path id="XMLID_1362_" class="st23" d="M311.1,759.1c-1.4,0-2.6,1.2-2.6,2.6s1.2,2.6,2.6,2.6c1.4,0,2.6-1.2,2.6-2.6
			S312.6,759.1,311.1,759.1z M310.9,764.1c-1.2,0-2.2-1-2.2-2.2s1-2.2,2.2-2.2s2.2,1,2.2,2.2S312.1,764.1,310.9,764.1z"/>
		<path id="XMLID_1359_" class="st19" d="M285.9,731c-2.2,0-4,1.8-4,4c0,2.2,1.8,4,4,4s4-1.8,4-4C289.9,732.8,288.1,731,285.9,731z
			 M285.5,738.9c-1.9,0-3.5-1.6-3.5-3.5c0-1.9,1.6-3.5,3.5-3.5c1.9,0,3.5,1.6,3.5,3.5C289,737.3,287.4,738.9,285.5,738.9z"/>
		<circle id="XMLID_1365_" class="st19" cx="285.9" cy="712.5" r="3.1"/>
		<circle id="XMLID_1392_" class="st19" cx="263.2" cy="743.1" r="5.5"/>
	</g>
	<path id="XMLID_1398_" class="st21" d="M98.8,269.8l-5.4,2.8c-0.3,0.1-0.4,0.3-0.6,0.6l-2.3,5.6c-0.3,0.8-1.3,1-2,0.4l-4.4-4.3
		c-0.2-0.2-0.5-0.3-0.8-0.3l-6.1-0.4c-0.9-0.1-1.4-1-1-1.7l2.7-5.5c0.1-0.3,0.2-0.5,0.1-0.8l-1.5-5.9c-0.2-0.8,0.5-1.6,1.3-1.5
		l6,0.9c0.3,0,0.6,0,0.8-0.2l5.2-3.2c0.7-0.5,1.7,0,1.8,0.8l1,6c0,0.3,0.2,0.5,0.4,0.7l4.7,3.9C99.7,268.3,99.6,269.4,98.8,269.8z"
		/>
</g>
</svg>
